Coordinates
version=1
nRows=8
nColumns=40
inDegrees=yes

Units are S.I. units (second, meters, Newtons, ...)
If the header above contains a line with 'inDegrees', this indicates whether rotational values are in degrees (yes) or radians (no).

endheader
time	pelvis_tilt	pelvis_list	pelvis_rotation	pelvis_tx	pelvis_ty	pelvis_tz	hip_flexion_r	hip_adduction_r	hip_rotation_r	knee_angle_r	knee_angle_r_beta	ankle_angle_r	subtalar_angle_r	mtp_angle_r	hip_flexion_l	hip_adduction_l	hip_rotation_l	knee_angle_l	knee_angle_l_beta	ankle_angle_l	subtalar_angle_l	mtp_angle_l	lumbar_extension	lumbar_bending	lumbar_rotation	arm_flex_r	arm_add_r	arm_rot_r	elbow_flex_r	pro_sup_r	wrist_flex_r	wrist_dev_r	arm_flex_l	arm_add_l	arm_rot_l	elbow_flex_l	pro_sup_l	wrist_flex_l	wrist_dev_l
      5.00000000	    -25.66615184	      4.99441542	      5.34093029	     -0.45788310	      0.75623621	     -0.73932559	     77.45254937	     -5.56403379	     -4.01406523	     81.11271084	      1.41568387	     17.30658271	      0.00000000	      0.00000000	     90.30370637	     -4.82376065	    -15.02414613	     53.68693672	      0.93701381	    -12.22224234	      0.00000000	      0.00000000	     -4.16562376	     -1.82340733	     -7.30534413	     89.96982390	     -0.82577867	     11.47383771	     55.66683459	     67.85192026	      0.00000000	      0.00000000	     89.95963175	     -7.00805026	      6.95150431	     51.55841576	     78.94364988	      0.00000000	      0.00000000
      5.00500000	    -25.56287661	      4.96617326	      5.30923312	     -0.45767241	      0.75763882	     -0.73920184	     77.11229353	     -5.52850748	     -4.08220979	     80.67765702	      1.40809075	     17.07268745	      0.00000000	      0.00000000	     90.15855964	     -4.86020752	    -14.91711381	     53.78302333	      0.93869084	    -12.23363010	      0.00000000	      0.00000000	     -4.23936318	     -1.82232571	     -7.19370215	     89.96981023	     -1.00947408	     11.55679975	     55.68138229	     68.02129628	      0.00000000	      0.00000000	     89.95977560	     -6.91940068	      7.04548906	     51.44831257	     79.05176339	      0.00000000	      0.00000000
      5.01000000	    -25.57287391	      4.98951322	      5.33621611	     -0.45755731	      0.75878068	     -0.73920329	     76.98805587	     -5.56071938	     -4.07326838	     80.45649865	      1.40423081	     17.02286667	      0.00000000	      0.00000000	     90.14720890	     -4.82015372	    -14.93501815	     53.81844771	      0.93930911	    -12.21169466	      0.00000000	      0.00000000	     -4.19563070	     -1.86298098	     -7.20893949	     89.96972484	     -1.03391360	     11.55730653	     55.66801530	     68.05671030	      0.00000000	      0.00000000	     89.95968514	     -6.90115320	      7.05708724	     51.45892122	     79.07792711	      0.00000000	      0.00000000
      5.01500000	    -25.53974047	      5.01073406	      5.35070464	     -0.45755530	      0.76010824	     -0.73912736	     76.78192811	     -5.58529688	     -4.07684628	     80.15603273	      1.39898669	     16.92809945	      0.00000000	      0.00000000	     90.04992858	     -4.77480539	    -14.95441117	     53.70650467	      0.93735534	    -12.26339698	      0.00000000	      0.00000000	     -4.20861593	     -1.91538762	     -7.19780029	     89.96974145	     -1.07898113	     11.56120025	     55.65004866	     68.10712144	      0.00000000	      0.00000000	     89.95968413	     -6.87822558	      7.07725200	     51.42575740	     79.11275927	      0.00000000	      0.00000000
      5.02000000	    -25.54193617	      5.00362767	      5.35006722	     -0.45740360	      0.76106888	     -0.73914206	     76.72817591	     -5.58962261	     -4.07979240	     80.11515758	      1.39827328	     16.91297516	      0.00000000	      0.00000000	     90.02287268	     -4.76620017	    -14.95374069	     53.71892812	      0.93757217	    -12.26749642	      0.00000000	      0.00000000	     -4.13626208	     -1.94156289	     -7.21528065	     89.96954448	     -1.09574435	     11.54911637	     55.66360466	     68.11291791	      0.00000000	      0.00000000	     89.95948362	     -6.87435332	      7.07111939	     51.44631001	     79.11683638	      0.00000000	      0.00000000
      5.02500000	    -25.50420178	      5.06173557	      5.37644378	     -0.45727642	      0.76241145	     -0.73913754	     76.47527995	     -5.64296635	     -4.06702995	     79.72079188	      1.39139030	     16.79148587	      0.00000000	      0.00000000	     89.94119611	     -4.71343051	    -14.94693438	     53.76263413	      0.93833498	    -12.31177250	      0.00000000	      0.00000000	     -4.14544848	     -1.99966420	     -7.21017717	     89.96960373	     -1.13870926	     11.57908153	     55.59952331	     68.15702722	      0.00000000	      0.00000000	     89.95947970	     -6.86142934	      7.10458561	     51.36070637	     79.14589923	      0.00000000	      0.00000000
      5.03000000	    -25.46633897	      5.06449567	      5.38587087	     -0.45713448	      0.76359720	     -0.73913670	     76.29812785	     -5.66193759	     -4.08516807	     79.49326428	      1.38741919	     16.69823511	      0.00000000	      0.00000000	     89.86818000	     -4.71175729	    -14.89672353	     53.84215827	      0.93972294	    -12.32518712	      0.00000000	      0.00000000	     -4.14107893	     -2.04372649	     -7.20282736	     89.96952838	     -1.20435485	     11.58706472	     55.56361524	     68.19869004	      0.00000000	      0.00000000	     89.95951624	     -6.81302092	      7.14248252	     51.32175644	     79.17473030	      0.00000000	      0.00000000
      5.03500000	    -25.40106826	      5.07298613	      5.37347969	     -0.45707166	      0.76491230	     -0.73912967	     76.05883401	     -5.66931214	     -4.11566344	     79.20211685	      1.38233771	     16.58260353	      0.00000000	      0.00000000	     89.76216166	     -4.68256780	    -14.92701578	     53.77715001	      0.93858833	    -12.38928575	      0.00000000	      0.00000000	     -4.14616850	     -2.05976274	     -7.17005426	     89.96952955	     -1.26611379	     11.61594750	     55.52146248	     68.25419712	      0.00000000	      0.00000000	     89.95945585	     -6.80346040	      7.16616813	     51.24111627	     79.20646690	      0.00000000	      0.00000000
